<svg xmlns="http://www.w3.org/2000/svg" viewBox="0 0 86.6 100">
    <defs>
        <style>.aa7639ed-7769-42a3-9607-096db60af50c{fill:#482049}.ab2ef5f9-1342-4ebf-8be5-034f8fa7d586{fill:#4652a2}.aa7b0510-c2c1-419d-9fa0-dc8324f69e0a{fill:#23274a}</style>
    </defs>
    <path class="aa7639ed-7769-42a3-9607-096db60af50c" d="m86.6 35-8.66 5-8.66-5-8.66-5-8.66-5V15l8.66 5 8.66 5 8.66 5 8.66 5z" />
    <path style="fill:#3772b9" d="M86.6 65v10l-8.66-5-8.66-5-8.66-5L43.3 50V0l17.32 10 8.66 5 8.66 5 8.66 5v10l-8.66-5-8.66-5-8.66-5-8.66-5v10l8.66 5 8.66 5 8.66 5 8.66 5v10l-8.66-5-8.66-5-8.66-5-8.66-5v10l8.66 5 8.66 5 8.66 5 8.66 5z" />
    <path class="aa7639ed-7769-42a3-9607-096db60af50c" d="m86.6 55-8.66 5-8.66-5-8.66-5-8.66-5V35l8.66 5 8.66 5 8.66 5 8.66 5z" />
    <path d="m86.85 75.25-8.66 5-8.66 5-8.66 5-17.32 10-8.66-5-8.66-5-8.66-5-8.66-5-8.66-5 8.66-5 8.66-5 8.66-5 8.66-5 8.66-5 17.32 10 8.66 5 8.66 5Zm-19.14 0 4.82-2.78-9.64-5.57-4.82 2.78 4.82 2.79-4.82 2.78-14.45-8.35 4.82-2.78 4.82 2.78 4.81-2.78-9.63-5.56-4.82 2.78-4.82-2.78-9.64 5.56L34 66.9l4.82-2.78 4.82 2.78-4.84 2.78L53.26 78l4.81-2.78L62.89 78l-4.82 2.78 4.82 2.78L72.53 78ZM48.44 91.94l9.63-5.56-4.81-2.79-4.82 2.79-4.82-2.79 4.82-2.78L34 72.47l-4.82 2.78-4.82-2.78 4.82-2.79-4.84-2.78-9.63 5.57 4.82 2.78L14.71 78l9.63 5.56 4.82-2.78L24.34 78l4.82-2.78 14.46 8.34-4.82 2.82-4.8-2.79-4.82 2.79 9.64 5.56 4.82-2.78Z" transform="translate(-.25 -.25)" style="fill:#271b3a" />
    <path class="ab2ef5f9-1342-4ebf-8be5-034f8fa7d586" d="M72.28 72.22 67.46 75l4.82 2.78-9.64 5.56-4.82-2.78 4.82-2.78L57.82 75l4.82-2.78-4.82-2.79 4.82-2.78 9.64 5.57zM57.82 63.87l-4.81 2.78-4.82-2.78-4.82 2.78-4.82-2.78-4.82 2.78-4.82-2.78 9.64-5.56 4.82 2.78 4.82-2.78 9.63 5.56zM57.82 75l-4.81 2.78-14.46-8.35 4.82-2.78L57.82 75zM57.82 86.13l-9.63 5.56-4.82-2.78-4.82 2.78-9.64-5.56 4.82-2.79 4.82 2.79 4.82-2.79 4.82 2.79 4.82-2.79 4.81 2.79z" />
    <path class="ab2ef5f9-1342-4ebf-8be5-034f8fa7d586" d="m48.19 80.56-4.82 2.78L28.91 75l4.82-2.78 14.46 8.34z" />
    <path style="fill:#4f4797" d="M43.3 0v50l-8.66 5-8.66 5-8.66 5-8.66 5L0 75V25l8.66-5v40l8.66-5V15l8.66-5v40l8.66-5V5l8.66-5z" />
    <path class="aa7b0510-c2c1-419d-9fa0-dc8324f69e0a" d="M34.64 15v30l-8.66 5V10l8.66 5z" />
    <path class="ab2ef5f9-1342-4ebf-8be5-034f8fa7d586" d="m28.91 69.43-4.82 2.79L28.91 75l-4.82 2.78 4.82 2.78-4.82 2.78-9.63-5.56L19.28 75l-4.82-2.78 9.63-5.57 4.82 2.78z" />
    <path class="aa7b0510-c2c1-419d-9fa0-dc8324f69e0a" d="M17.32 25v30l-8.66 5V20l8.66 5z" />
</svg>