<svg xmlns="http://www.w3.org/2000/svg" viewBox="0 0 128 128"><defs><style>.b9863f96-f518-4617-a3d2-849c668c9e27{fill:none;stroke:#231815;stroke-linejoin:bevel}</style></defs><g id="fbf30172-322a-4d28-9d38-d4eac9aad078" data-name="图层 2"><g id="af2a1b44-eba6-4cbc-a788-c4393f05c9d1" data-name="图层 1"><path class="b9863f96-f518-4617-a3d2-849c668c9e27" d="m107.3 49-8.66 5-8.66-5-8.66-5-8.66-5V29l8.66 5 8.66 5 8.66 5 8.66 5z"/><path class="b9863f96-f518-4617-a3d2-849c668c9e27" d="m64 14 17.32 10 8.66 5 8.66 5 8.66 5v10l-8.66-5-8.66-5-8.66-5-8.66-5v10l8.66 5 8.66 5 8.66 5 8.66 5v10M98.64 74l8.66 5v10"/><path class="b9863f96-f518-4617-a3d2-849c668c9e27" d="m107.3 69-8.66 5-8.66-5-8.66-5-8.66-5V49l8.66 5 8.66 5 8.66 5 8.66 5zM64 64l17.32 10 8.66 5 8.66 5 8.66 5-8.66 5-8.66 5-8.66 5L64 114l-8.66-5-8.66-5-8.66-5-8.66-5-8.66-5"/><path class="b9863f96-f518-4617-a3d2-849c668c9e27" d="M55.34 29V19L64 14v50l-8.66 5-8.66 5-8.66 5-8.66 5-8.66 5V39l8.66-5"/><path class="b9863f96-f518-4617-a3d2-849c668c9e27" d="M38.02 39V29l8.66-5M55.34 29v30l-8.66 5V24l8.66 5zM38.02 39v30l-8.66 5V34l8.66 5zM64.07 97.34 49.61 89M64.07 97.34l4.82 2.79 4.82-2.79 4.81 2.79-9.63 5.56-4.82-2.78-4.82 2.78-9.64-5.56 4.82-2.79 4.82 2.79 4.82-2.79z"/><path class="b9863f96-f518-4617-a3d2-849c668c9e27" d="m49.61 89 4.82-2.78 14.46 8.34-4.82 2.78M49.61 89l-4.82 2.78 4.82 2.78-4.82 2.78-9.63-5.56L39.98 89l-4.82-2.78 9.63-5.57 4.82 2.78-4.82 2.79L49.61 89zM78.52 89l-4.81 2.78-14.46-8.35 4.82-2.78"/><path class="b9863f96-f518-4617-a3d2-849c668c9e27" d="m78.52 89 4.82-2.78-4.82-2.79 4.82-2.78 9.64 5.57L88.16 89l4.82 2.78-9.64 5.56-4.82-2.78 4.82-2.78L78.52 89zM64.07 80.65 78.52 89M64.07 80.65l-4.82-2.78-4.82 2.78-4.82-2.78 9.64-5.56 4.82 2.78 4.82-2.78 9.63 5.56-4.81 2.78-4.82-2.78-4.82 2.78z"/><path style="fill:none" d="M0 0h128v128H0z"/></g></g></svg>